<?xml version="1.0" encoding="UTF-8"?><svg id="uuid-d5d4caf6-5f16-4cc0-b8bb-c567f16e7a09" xmlns="http://www.w3.org/2000/svg" viewBox="0 0 119 119"><circle cx="59.53" cy="59.5" r="59.5" style="fill:#fff;"/><path d="m53.72,110.79c0,1.95-1.58,3.54-3.53,3.54s-3.54-1.59-3.54-3.54,1.58-3.54,3.54-3.54,3.53,1.59,3.53,3.54Z" style="fill:#231815;"/><path d="m75.37,110.79c0,1.95-1.58,3.54-3.54,3.54s-3.53-1.59-3.53-3.54,1.58-3.54,3.53-3.54,3.54,1.59,3.54,3.54Z" style="fill:#231815;"/><path d="m29.18,103.46s0,.03,0,.04c-.02-.01-.04-.03-.06-.04" style="fill:none; stroke:#2ea7e0; stroke-miterlimit:10; stroke-width:.5px;"/><path d="m53.72,110.79c0,1.95-1.58,3.54-3.53,3.54s-3.54-1.59-3.54-3.54,1.58-3.54,3.54-3.54,3.53,1.59,3.53,3.54Z" style="fill:#231815;"/><path d="m75.37,110.79c0,1.95-1.58,3.54-3.54,3.54s-3.53-1.59-3.53-3.54,1.58-3.54,3.53-3.54,3.54,1.59,3.54,3.54Z" style="fill:#231815;"/><path d="m29.11,103.45c-12.45-9.33-20.66-23.98-21.28-40.54-.03-.83-.05-1.66-.04-2.5.25-29.37,24.27-52.97,53.64-52.72" style="fill:none; stroke:#231815; stroke-linecap:round; stroke-miterlimit:10; stroke-width:8px;"/><path d="m73.41,95.66c-4.03-1-8.24-1.54-12.57-1.58-4.97-.04-9.8.59-14.38,1.81-2.66-4.16-5.67-8.08-8.98-11.72-.06-.07-.13-.14-.19-.2-.29-.32-.58-.64-.88-.95h-.01c-3.16,6.42-5.56,13.29-7.07,20.51" style="fill:none; stroke:#231815; stroke-linecap:round; stroke-linejoin:round; stroke-width:8px;"/><path d="m74.38,95.89c2.66-4.16,5.67-8.08,8.98-11.72.06-.07.13-.14.19-.2.29-.32.58-.64.88-.95h.01c3.16,6.42,5.56,13.29,7.07,20.51" style="fill:none; stroke:#231815; stroke-linecap:round; stroke-linejoin:round; stroke-width:8px;"/></svg>