<?xml version="1.0" encoding="UTF-8"?>
<svg id="_图层_1" data-name="图层 1" xmlns="http://www.w3.org/2000/svg" viewBox="0 0 130.82 130.82">
  <defs>
    <style>
      .cls-1 {
        stroke: #2ea7e0;
        stroke-width: .5px;
      }

      .cls-1, .cls-2, .cls-3 {
        fill: none;
      }

      .cls-1, .cls-2, .cls-4 {
        stroke-miterlimit: 10;
      }

      .cls-2, .cls-3 {
        stroke: #231815;
        stroke-linecap: round;
        stroke-width: 8px;
      }

      .cls-3 {
        stroke-linejoin: round;
      }

      .cls-4 {
        fill: #fff;
        stroke: #fff;
      }

      .cls-5 {
        fill: #231815;
      }
    </style>
  </defs>
  <circle class="cls-4" cx="65.41" cy="65.41" r="54.83"/>
  <g>
    <path class="cls-5" d="m63.96,96.82c0,1.2-.97,2.17-2.16,2.17s-2.17-.98-2.17-2.17.97-2.17,2.17-2.17,2.16.98,2.16,2.17Z"/>
    <path class="cls-5" d="m77.24,96.82c0,1.2-.97,2.17-2.17,2.17s-2.16-.98-2.16-2.17.97-2.17,2.16-2.17,2.17.98,2.17,2.17Z"/>
    <path class="cls-1" d="m48.91,92.32s0,.02,0,.03c-.01,0-.02-.02-.04-.03"/>
    <path class="cls-5" d="m63.96,96.82c0,1.2-.97,2.17-2.16,2.17s-2.17-.98-2.17-2.17.97-2.17,2.17-2.17,2.16.98,2.16,2.17Z"/>
    <path class="cls-5" d="m77.24,96.82c0,1.2-.97,2.17-2.17,2.17s-2.16-.98-2.16-2.17.97-2.17,2.16-2.17,2.17.98,2.17,2.17Z"/>
    <g>
      <path class="cls-2" d="m48.87,92.32c-7.63-5.72-12.67-14.71-13.05-24.86-.02-.51-.03-1.02-.02-1.53.16-18.01,14.88-32.49,32.89-32.33"/>
      <path class="cls-3" d="m76.04,87.54c-2.47-.61-5.05-.95-7.71-.97-3.05-.03-6.01.36-8.82,1.11-1.63-2.55-3.48-4.95-5.51-7.19-.04-.04-.08-.09-.12-.12-.18-.2-.36-.39-.54-.58h0c-1.94,3.94-3.41,8.15-4.34,12.58"/>
      <path class="cls-3" d="m76.63,87.68c1.63-2.55,3.48-4.95,5.51-7.19.04-.04.08-.09.12-.12.18-.2.36-.39.54-.58h0c1.94,3.94,3.41,8.15,4.34,12.58"/>
    </g>
  </g>
</svg>